# xmcd
#
# Track frame offsets:
#	150
#	11445
#	25558
#	42268
#	55281
#	69278
#	85873
#	99303
#	110640
#	124890
#	135972
#	150640
#	164807
#	176115
#	190920
#	205317
#	218012
#	228890
#	243390
#	255403
#
# Disc length: 3597 seconds
#
# Revision: 1
# Processed by: cddbd v1.5.2PL0 Copyright (c) Steve Scherf et al.
# Submitted via: audiograbber 1.83.01
#
DISCID=070e0b14
DTITLE=Jose Alfredo Jiménez - 20 Grandes Exitos Vol. 1
DYEAR=1900
DGENRE=Ranchero
TTITLE0=Ella ...la que se fue
TTITLE1=Sonaron cuatro balazos
TTITLE2=Un mundo raro
TTITLE3=Corazón Corazón
TTITLE4=Cuando sale la luna
TTITLE5=Camino de Guanajuato
TTITLE6=Alla tu si me olvidas
TTITLE7=Una noche de tantas
TTITLE8=Maldición ranchera
TTITLE9=Buena o Mala
TTITLE10=Amarga Navidad
TTITLE11=La noche de mi mal
TTITLE12=Que bonito amor
TTITLE13=Pasaste a la historia
TTITLE14=Camino viejo
TTITLE15=A la luz de los cocuyos
TTITLE16=Cuando los años pasen
TTITLE17=Tu recuerdo en cuatro copas
TTITLE18=El caballo blanco
TTITLE19=La estrella de Jalisco
EXTD=
EXTT0=
EXTT1=
EXTT2=
EXTT3=
EXTT4=
EXTT5=
EXTT6=
EXTT7=
EXTT8=
EXTT9=
EXTT10=
EXTT11=
EXTT12=
EXTT13=
EXTT14=
EXTT15=
EXTT16=
EXTT17=
EXTT18=
EXTT19=
PLAYORDER=
